<svg width="38" height="38" viewBox="0 0 38 38" fill="none" xmlns="http://www.w3.org/2000/svg">
<rect width="38" height="38" rx="10" fill="#76B8C3" fill-opacity="0.3"/>
<g clip-path="url(#clip0_905_1247)">
<path d="M27.2499 24.628L27.061 24.4613C26.5251 23.9839 26.0561 23.4364 25.6666 22.8336C25.2411 22.0016 24.9861 21.0931 24.9166 20.1613V17.4169C24.9202 15.9533 24.3893 14.5388 23.4236 13.4391C22.4579 12.3394 21.1239 11.6301 19.6721 11.4447V10.728C19.6721 10.5313 19.594 10.3426 19.4549 10.2036C19.3158 10.0645 19.1271 9.98633 18.9304 9.98633C18.7337 9.98633 18.5451 10.0645 18.406 10.2036C18.2669 10.3426 18.1888 10.5313 18.1888 10.728V11.4558C16.75 11.6546 15.4321 12.3681 14.4791 13.4642C13.5261 14.5602 13.0025 15.9645 13.0054 17.4169V20.1613C12.9359 21.0931 12.6809 22.0016 12.2554 22.8336C11.8726 23.4349 11.4111 23.9823 10.8832 24.4613L10.6943 24.628V26.1947H27.2499V24.628Z" fill="#027C90"/>
<path d="M17.5112 26.7778C17.5599 27.13 17.7344 27.4526 18.0025 27.6861C18.2706 27.9197 18.6141 28.0483 18.9696 28.0483C19.3251 28.0483 19.6686 27.9197 19.9366 27.6861C20.2047 27.4526 20.3792 27.13 20.4279 26.7778H17.5112Z" fill="#027C90"/>
</g>
<defs>
<clipPath id="clip0_905_1247">
<rect width="20" height="20" fill="white" transform="translate(9 9)"/>
</clipPath>
</defs>
</svg>
