<svg width="24" height="20" viewBox="0 0 24 20" fill="none" xmlns="http://www.w3.org/2000/svg">
<path d="M23.7647 0.588235H6.58824C6.45882 0.588235 6.35294 0.694118 6.35294 0.823529V2.47059C6.35294 2.6 6.45882 2.70588 6.58824 2.70588H23.7647C23.8941 2.70588 24 2.6 24 2.47059V0.823529C24 0.694118 23.8941 0.588235 23.7647 0.588235ZM23.7647 8.94118H6.58824C6.45882 8.94118 6.35294 9.04706 6.35294 9.17647V10.8235C6.35294 10.9529 6.45882 11.0588 6.58824 11.0588H23.7647C23.8941 11.0588 24 10.9529 24 10.8235V9.17647C24 9.04706 23.8941 8.94118 23.7647 8.94118ZM23.7647 17.2941H6.58824C6.45882 17.2941 6.35294 17.4 6.35294 17.5294V19.1765C6.35294 19.3059 6.45882 19.4118 6.58824 19.4118H23.7647C23.8941 19.4118 24 19.3059 24 19.1765V17.5294C24 17.4 23.8941 17.2941 23.7647 17.2941ZM0 1.64706C-3.22304e-09 1.86335 0.0426025 2.07753 0.125375 2.27736C0.208147 2.47719 0.329469 2.65876 0.482412 2.81171C0.635356 2.96465 0.816926 3.08597 1.01676 3.16874C1.21659 3.25151 1.43076 3.29412 1.64706 3.29412C1.86335 3.29412 2.07753 3.25151 2.27736 3.16874C2.47719 3.08597 2.65876 2.96465 2.81171 2.81171C2.96465 2.65876 3.08597 2.47719 3.16874 2.27736C3.25152 2.07753 3.29412 1.86335 3.29412 1.64706C3.29412 1.43076 3.25152 1.21659 3.16874 1.01676C3.08597 0.816926 2.96465 0.635356 2.81171 0.482412C2.65876 0.329469 2.47719 0.208147 2.27736 0.125375C2.07753 0.0426023 1.86335 0 1.64706 0C1.43076 0 1.21659 0.0426023 1.01676 0.125375C0.816926 0.208147 0.635356 0.329469 0.482412 0.482412C0.329469 0.635356 0.208147 0.816926 0.125375 1.01676C0.0426025 1.21659 -3.22304e-09 1.43076 0 1.64706V1.64706ZM0 10C-3.22304e-09 10.2163 0.0426025 10.4305 0.125375 10.6303C0.208147 10.8301 0.329469 11.0117 0.482412 11.1646C0.635356 11.3176 0.816926 11.4389 1.01676 11.5217C1.21659 11.6045 1.43076 11.6471 1.64706 11.6471C1.86335 11.6471 2.07753 11.6045 2.27736 11.5217C2.47719 11.4389 2.65876 11.3176 2.81171 11.1646C2.96465 11.0117 3.08597 10.8301 3.16874 10.6303C3.25152 10.4305 3.29412 10.2163 3.29412 10C3.29412 9.78371 3.25152 9.56953 3.16874 9.3697C3.08597 9.16987 2.96465 8.9883 2.81171 8.83535C2.65876 8.68241 2.47719 8.56109 2.27736 8.47832C2.07753 8.39554 1.86335 8.35294 1.64706 8.35294C1.43076 8.35294 1.21659 8.39554 1.01676 8.47832C0.816926 8.56109 0.635356 8.68241 0.482412 8.83535C0.329469 8.9883 0.208147 9.16987 0.125375 9.3697C0.0426025 9.56953 -3.22304e-09 9.78371 0 10V10ZM0 18.3529C-3.22304e-09 18.5692 0.0426025 18.7834 0.125375 18.9832C0.208147 19.1831 0.329469 19.3646 0.482412 19.5176C0.635356 19.6705 0.816926 19.7919 1.01676 19.8746C1.21659 19.9574 1.43076 20 1.64706 20C1.86335 20 2.07753 19.9574 2.27736 19.8746C2.47719 19.7919 2.65876 19.6705 2.81171 19.5176C2.96465 19.3646 3.08597 19.1831 3.16874 18.9832C3.25152 18.7834 3.29412 18.5692 3.29412 18.3529C3.29412 18.1366 3.25152 17.9225 3.16874 17.7226C3.08597 17.5228 2.96465 17.3412 2.81171 17.1883C2.65876 17.0354 2.47719 16.914 2.27736 16.8313C2.07753 16.7485 1.86335 16.7059 1.64706 16.7059C1.43076 16.7059 1.21659 16.7485 1.01676 16.8313C0.816926 16.914 0.635356 17.0354 0.482412 17.1883C0.329469 17.3412 0.208147 17.5228 0.125375 17.7226C0.0426025 17.9225 -3.22304e-09 18.1366 0 18.3529V18.3529Z" fill="white"/>
</svg>
