<svg width="31" height="30" viewBox="0 0 31 30" fill="none" xmlns="http://www.w3.org/2000/svg">
<path d="M25.0668 3.72632H29.6315C29.7558 3.72632 29.875 3.67693 29.9629 3.58902C30.0508 3.50112 30.1002 3.38189 30.1002 3.25757C30.1002 3.13325 30.0508 3.01402 29.9629 2.92611C29.875 2.8382 29.7558 2.78882 29.6315 2.78882H24.0065C23.8822 2.78882 23.7629 2.8382 23.675 2.92611C23.5871 3.01402 23.5377 3.13325 23.5377 3.25757V8.88257C23.5377 9.00689 23.5871 9.12612 23.675 9.21403C23.7629 9.30193 23.8822 9.35132 24.0065 9.35132C24.1308 9.35132 24.25 9.30193 24.3379 9.21403C24.4258 9.12612 24.4752 9.00689 24.4752 8.88257V4.46038L25.048 5.03319C27.704 7.68913 29.1674 11.2207 29.1674 14.9763C29.1674 18.7319 27.704 22.2635 25.048 24.9194C23.1172 26.8498 20.6664 28.1768 17.9945 28.7386C15.3226 29.3004 12.545 29.0728 10.0002 28.0835C9.88449 28.0385 9.75561 28.0413 9.64194 28.0913C9.52828 28.1414 9.43914 28.2345 9.39413 28.3502C9.34913 28.466 9.35195 28.5948 9.40197 28.7085C9.45199 28.8222 9.54511 28.9113 9.66085 28.9563C12.3751 30.0118 15.3378 30.2547 18.1877 29.6554C21.0376 29.0561 23.6516 27.6406 25.7109 25.5813C28.544 22.7491 30.1049 18.9813 30.1049 14.9754C30.1049 10.9694 28.544 7.20257 25.7109 4.37038L25.0668 3.72632Z" fill="#027C90"/>
<path d="M6.19406 20.6013C6.06974 20.6013 5.95051 20.6507 5.86261 20.7386C5.7747 20.8265 5.72531 20.9457 5.72531 21.07V25.6075L5.05688 24.9391C2.40094 22.2832 0.9375 18.7516 0.9375 14.996C0.9375 11.2403 2.40094 7.70784 5.05688 5.0519C6.96377 3.15054 9.37527 1.835 12.0062 1.26083C14.6371 0.686667 17.3774 0.877895 19.9031 1.8119C20.0178 1.8474 20.1418 1.8376 20.2495 1.78454C20.3572 1.73147 20.4405 1.63916 20.4823 1.52658C20.5241 1.41399 20.5211 1.28969 20.4741 1.1792C20.4271 1.06872 20.3395 0.980445 20.2294 0.932528C17.5353 -0.062916 14.6125 -0.266404 11.8065 0.346108C9.0004 0.958619 6.4283 2.36153 4.39406 4.38909C1.56094 7.22128 0 10.9891 0 14.995C0 19.001 1.56094 22.7688 4.39406 25.601L5.01844 26.2263H0.569062C0.444742 26.2263 0.325514 26.2757 0.237606 26.3636C0.149699 26.4515 0.100313 26.5707 0.100313 26.695C0.100313 26.8193 0.149699 26.9386 0.237606 27.0265C0.325514 27.1144 0.444742 27.1638 0.569062 27.1638H6.05906C6.09656 27.1732 6.41156 27.1403 6.50344 27.0485C6.50719 27.0447 6.50813 27.04 6.51188 27.0363C6.55924 26.9929 6.5971 26.9402 6.62307 26.8815C6.64905 26.8227 6.66258 26.7592 6.66281 26.695V21.07C6.66281 20.9457 6.61343 20.8265 6.52552 20.7386C6.43761 20.6507 6.31838 20.6013 6.19406 20.6013Z" fill="#027C90"/>
</svg>
