<svg width="70" height="70" viewBox="0 0 70 70" fill="none" xmlns="http://www.w3.org/2000/svg">
<circle cx="35" cy="35" r="35" fill="#027C90" fill-opacity="0.1"/>
<path d="M47 25H23C22.4696 25 21.9609 25.2107 21.5858 25.5858C21.2107 25.9609 21 26.4696 21 27V43C21 43.5304 21.2107 44.0391 21.5858 44.4142C21.9609 44.7893 22.4696 45 23 45H47C47.5304 45 48.0391 44.7893 48.4142 44.4142C48.7893 44.0391 49 43.5304 49 43V27C49 26.4696 48.7893 25.9609 48.4142 25.5858C48.0391 25.2107 47.5304 25 47 25ZM44.8 27L35 33.78L25.2 27H44.8ZM23 43V27.91L34.43 35.82C34.5974 35.9361 34.7963 35.9984 35 35.9984C35.2037 35.9984 35.4026 35.9361 35.57 35.82L47 27.91V43H23Z" fill="#027C90"/>
</svg>
