<svg width="90" height="100" viewBox="0 0 90 100" fill="none" xmlns="http://www.w3.org/2000/svg">
<path d="M74.0683 12.35C73.6683 12.35 73.2683 12.25 72.9183 12.05C63.3183 7.1 55.0183 5 45.0683 5C35.1683 5 25.7683 7.35 17.2183 12.05C16.0183 12.7 14.5183 12.25 13.8183 11.05C13.5064 10.4652 13.4365 9.78145 13.6235 9.14565C13.8105 8.50986 14.2395 7.97283 14.8183 7.65C24.1183 2.6 34.3183 0 45.0683 0C55.7183 0 65.0183 2.35 75.2183 7.6C76.4683 8.25 76.9183 9.75 76.2683 10.95C76.0706 11.3668 75.7592 11.7193 75.37 11.967C74.9808 12.2147 74.5296 12.3474 74.0683 12.35ZM2.51826 38.6C2.05737 38.6043 1.60429 38.4808 1.20929 38.2433C0.814286 38.0058 0.492795 37.6635 0.280478 37.2544C0.0681605 36.8453 -0.0266852 36.3854 0.00646095 35.9257C0.0396071 35.466 0.19945 35.0244 0.468259 34.65C5.41826 27.65 11.7183 22.15 19.2183 18.3C34.9183 10.2 55.0183 10.15 70.7683 18.25C78.2683 22.1 84.5683 27.55 89.5183 34.5C89.7101 34.7687 89.8468 35.0727 89.9205 35.3946C89.9942 35.7164 90.0034 36.0496 89.9477 36.375C89.8919 36.7004 89.7722 37.0116 89.5955 37.2905C89.4188 37.5694 89.1886 37.8105 88.9183 38C87.7683 38.8 86.2183 38.55 85.4183 37.4C81.0396 31.2019 75.2235 26.1578 68.4683 22.7C54.1183 15.35 35.7683 15.35 21.4683 22.75C14.6683 26.25 8.96826 31.25 4.46826 37.55C4.06826 38.25 3.31826 38.6 2.51826 38.6ZM33.7683 98.95C33.4404 98.954 33.1153 98.8893 32.8139 98.7602C32.5125 98.631 32.2415 98.4402 32.0183 98.2C27.6683 93.85 25.3183 91.05 21.9683 85C18.5183 78.85 16.7183 71.35 16.7183 63.3C16.7183 48.45 29.4183 36.35 45.0183 36.35C60.6183 36.35 73.3183 48.45 73.3183 63.3C73.3183 64.7 72.2183 65.8 70.8183 65.8C69.4183 65.8 68.3183 64.7 68.3183 63.3C68.3183 51.2 57.8683 41.35 45.0183 41.35C32.1683 41.35 21.7183 51.2 21.7183 63.3C21.7183 70.5 23.3183 77.15 26.3683 82.55C29.5683 88.3 31.7683 90.75 35.6183 94.65C36.5683 95.65 36.5683 97.2 35.6183 98.2C35.0683 98.7 34.4183 98.95 33.7683 98.95ZM69.6183 89.7C63.6683 89.7 58.4183 88.2 54.1183 85.25C46.6683 80.2 42.2183 72 42.2183 63.3C42.2183 61.9 43.3183 60.8 44.7183 60.8C46.1183 60.8 47.2183 61.9 47.2183 63.3C47.2183 70.35 50.8183 77 56.9183 81.1C60.4683 83.5 64.6183 84.65 69.6183 84.65C70.8183 84.65 72.8183 84.5 74.8183 84.15C76.1683 83.9 77.4683 84.8 77.7183 86.2C77.9683 87.55 77.0683 88.85 75.6683 89.1C72.8183 89.65 70.3183 89.7 69.6183 89.7ZM59.5683 100C59.3683 100 59.1183 99.95 58.9183 99.9C50.9683 97.7 45.7683 94.75 40.3183 89.4C36.8647 85.9899 34.1261 81.925 32.2631 77.4434C30.4 72.9617 29.4499 68.1534 29.4683 63.3C29.4683 55.2 36.3683 48.6 44.8683 48.6C53.3683 48.6 60.2683 55.2 60.2683 63.3C60.2683 68.65 64.9183 73 70.6683 73C76.4183 73 81.0683 68.65 81.0683 63.3C81.0683 44.45 64.8183 29.15 44.8183 29.15C30.6183 29.15 17.6183 37.05 11.7683 49.3C9.81826 53.35 8.81826 58.1 8.81826 63.3C8.81826 67.2 9.16826 73.35 12.1683 81.35C12.6683 82.65 12.0183 84.1 10.7183 84.55C9.41826 85.05 7.96826 84.35 7.51826 83.1C5.10895 76.7765 3.87209 70.0669 3.86826 63.3C3.86826 57.3 5.01826 51.85 7.26826 47.1C13.9183 33.15 28.6683 24.1 44.8183 24.1C67.5683 24.1 86.0683 41.65 86.0683 63.25C86.0683 71.35 79.1683 77.95 70.6683 77.95C62.1683 77.95 55.2683 71.35 55.2683 63.25C55.2683 57.9 50.6183 53.55 44.8683 53.55C39.1183 53.55 34.4683 57.9 34.4683 63.25C34.4683 71.8 37.7683 79.8 43.8183 85.8C48.5683 90.5 53.1183 93.1 60.1683 95.05C61.5183 95.4 62.2683 96.8 61.9183 98.1C61.6683 99.25 60.6183 100 59.5683 100Z" fill="#027C90"/>
</svg>
