<svg width="200" height="200" viewBox="0 0 200 200" fill="none" xmlns="http://www.w3.org/2000/svg">
<path fill-rule="evenodd" clip-rule="evenodd" d="M100 200C155.228 200 200 155.228 200 100C200 44.7715 155.228 0 100 0C44.7715 0 0 44.7715 0 100C0 155.228 44.7715 200 100 200ZM10 100C10 86.1929 21.1929 75 35 75H67.5C67.5 75 69.6 75 69.6 79V121C69.6 125 67.5 125 67.5 125H35C21.1929 125 10 113.807 10 100ZM35 78C22.8497 78 13 87.8498 13 100C13 112.15 22.8497 122 35 122H66.5V78L35 78ZM133.42 104.668H128.938L131.12 99.3359L133.42 104.668ZM144.948 102.573C145.124 102.593 145.314 102.607 145.52 102.617C145.725 102.617 145.944 102.607 146.179 102.588C146.413 102.559 146.657 102.51 146.911 102.441C147.175 102.373 147.448 102.271 147.731 102.134C148.024 101.987 148.273 101.812 148.479 101.606C148.693 101.392 148.869 101.162 149.006 100.918C149.143 100.664 149.245 100.405 149.313 100.142C149.382 99.8682 149.416 99.6094 149.416 99.3652C149.416 98.9355 149.343 98.5352 149.196 98.1641C149.06 97.793 148.859 97.4756 148.596 97.2119C148.332 96.9385 148.01 96.7285 147.629 96.582C147.258 96.4258 146.843 96.3477 146.384 96.3477C146.11 96.3477 145.842 96.3672 145.578 96.4062C145.314 96.4355 145.104 96.46 144.948 96.4795V102.573ZM165 125H74.5C74.5 125 72.4 125 72.4 121V79C72.4 75 74.5 75 74.5 75H165C178.807 75 190 86.1929 190 100C190 113.807 178.807 125 165 125ZM104.167 96.1133V95.6006H98.6738V96.1133C99.1426 96.1133 99.5186 96.167 99.8018 96.2744C100.085 96.3818 100.305 96.5332 100.461 96.7285C100.627 96.9141 100.734 97.1387 100.783 97.4023C100.842 97.666 100.871 97.9541 100.871 98.2666V104.448C100.871 104.731 100.861 105.01 100.842 105.283C100.832 105.547 100.798 105.815 100.739 106.089C100.69 106.353 100.612 106.616 100.505 106.88C100.397 107.144 100.256 107.407 100.08 107.671C99.875 107.983 99.6162 108.247 99.3037 108.462C99.001 108.677 98.6738 108.853 98.3223 108.989C97.9805 109.116 97.624 109.214 97.2529 109.282C96.8818 109.341 96.5303 109.37 96.1982 109.37C95.5439 109.37 94.9922 109.282 94.543 109.106C94.1035 108.921 93.7373 108.691 93.4443 108.418C93.1611 108.135 92.9414 107.827 92.7852 107.495C92.6289 107.153 92.5117 106.821 92.4336 106.499C92.3652 106.177 92.3262 105.884 92.3164 105.62C92.3066 105.347 92.3018 105.146 92.3018 105.02V98.7939C92.3018 98.3154 92.3213 97.9102 92.3604 97.5781C92.3994 97.2363 92.4971 96.958 92.6533 96.7432C92.8096 96.5283 93.0391 96.3721 93.3418 96.2744C93.6543 96.167 94.0742 96.1133 94.6016 96.1133V95.6006H87.4678V96.1133C87.9854 96.1133 88.3955 96.167 88.6982 96.2744C89.0107 96.3721 89.2451 96.5332 89.4014 96.7578C89.5674 96.9727 89.6748 97.251 89.7236 97.5928C89.7725 97.9248 89.7969 98.3252 89.7969 98.7939V105.02C89.7969 106.807 90.2998 108.154 91.3057 109.062C92.3213 109.961 93.8545 110.41 95.9053 110.41C96.2959 110.41 96.7305 110.376 97.209 110.308C97.6973 110.239 98.1855 110.107 98.6738 109.912C99.1621 109.717 99.6309 109.448 100.08 109.106C100.529 108.755 100.915 108.301 101.237 107.744C101.462 107.344 101.618 106.851 101.706 106.265C101.794 105.669 101.838 105.083 101.838 104.507V98.7939C101.838 98.4033 101.853 98.0469 101.882 97.7246C101.911 97.3926 101.999 97.1094 102.146 96.875C102.302 96.6309 102.536 96.4453 102.849 96.3184C103.161 96.1816 103.601 96.1133 104.167 96.1133ZM122.8 96.4355L122.346 89.6826H121.833C121.726 90.1514 121.545 90.5176 121.291 90.7812C121.096 90.9668 120.866 91.0596 120.603 91.0596C120.427 91.0596 120.134 90.9521 119.724 90.7373C118.327 90.0342 116.911 89.6826 115.476 89.6826C113.63 89.6826 111.926 90.1416 110.363 91.0596C108.811 91.9678 107.59 93.252 106.701 94.9121C105.812 96.5723 105.368 98.3936 105.368 100.376C105.368 102.837 106.042 104.976 107.39 106.792C109.196 109.233 111.745 110.454 115.036 110.454C116.862 110.454 118.439 110.044 119.768 109.224C121.096 108.403 122.258 107.109 123.254 105.342L122.8 105.049C121.618 106.689 120.534 107.788 119.548 108.345C118.562 108.892 117.424 109.165 116.135 109.165C114.65 109.165 113.327 108.813 112.165 108.11C111.013 107.407 110.148 106.396 109.572 105.078C108.996 103.76 108.708 102.202 108.708 100.405C108.708 98.2275 109.011 96.4062 109.616 94.9414C110.231 93.4766 111.071 92.4121 112.136 91.748C113.2 91.0742 114.392 90.7373 115.71 90.7373C117.282 90.7373 118.63 91.1816 119.753 92.0703C120.876 92.959 121.74 94.4141 122.346 96.4355H122.8ZM124.44 109.473V110H128.938V109.473C128.85 109.473 128.732 109.458 128.586 109.429C128.439 109.39 128.293 109.336 128.146 109.268C128 109.189 127.873 109.087 127.766 108.96C127.668 108.823 127.619 108.657 127.619 108.462C127.619 108.306 127.639 108.149 127.678 107.993C127.717 107.827 127.78 107.632 127.868 107.407L128.645 105.547H133.801L134.606 107.407C134.743 107.7 134.846 107.949 134.914 108.154C134.992 108.359 135.031 108.545 135.031 108.711C135.031 108.887 134.978 109.028 134.87 109.136C134.763 109.233 134.636 109.307 134.489 109.355C134.343 109.404 134.191 109.438 134.035 109.458C133.879 109.468 133.752 109.473 133.654 109.473V110H139.646V109.473C139.421 109.473 139.206 109.463 139.001 109.443C138.806 109.414 138.61 109.341 138.415 109.224C138.229 109.097 138.044 108.911 137.858 108.667C137.673 108.413 137.482 108.062 137.287 107.612L131.955 95.2197H131.721L126.916 106.895C126.652 107.52 126.413 108.003 126.198 108.345C125.983 108.687 125.778 108.94 125.583 109.106C125.388 109.272 125.197 109.375 125.012 109.414C124.826 109.443 124.636 109.463 124.44 109.473ZM146.135 103.32L151.452 110H155.231V109.473C154.948 109.414 154.689 109.336 154.455 109.238C154.221 109.141 153.996 109.019 153.781 108.872C153.576 108.726 153.371 108.55 153.166 108.345C152.961 108.13 152.746 107.886 152.521 107.612L148.757 102.969C148.894 102.93 149.074 102.876 149.299 102.808C149.533 102.739 149.782 102.646 150.046 102.529C150.31 102.412 150.573 102.266 150.837 102.09C151.101 101.914 151.34 101.699 151.555 101.445C151.77 101.191 151.94 100.894 152.067 100.552C152.204 100.21 152.272 99.8145 152.272 99.3652C152.272 98.7891 152.141 98.2764 151.877 97.8271C151.623 97.3779 151.301 97.0117 150.91 96.7285C150.549 96.4648 150.168 96.2598 149.768 96.1133C149.367 95.957 148.967 95.8447 148.566 95.7764C148.176 95.6982 147.79 95.6494 147.409 95.6299C147.038 95.6104 146.696 95.6006 146.384 95.6006H140.114V96.1133C140.622 96.1133 141.027 96.167 141.33 96.2744C141.643 96.3721 141.877 96.5283 142.033 96.7432C142.199 96.958 142.307 97.2363 142.355 97.5781C142.404 97.9102 142.429 98.3057 142.429 98.7646V106.836C142.429 107.305 142.399 107.705 142.341 108.037C142.292 108.369 142.185 108.643 142.019 108.857C141.862 109.072 141.628 109.229 141.315 109.326C141.013 109.424 140.612 109.473 140.114 109.473V110H147.014V109.473C146.828 109.473 146.613 109.463 146.369 109.443C146.135 109.414 145.91 109.331 145.695 109.194C145.49 109.048 145.314 108.823 145.168 108.521C145.021 108.218 144.948 107.788 144.948 107.231V103.32C145.065 103.33 145.168 103.34 145.256 103.35H145.783C145.881 103.34 145.998 103.33 146.135 103.32ZM167.36 98.999L167.214 95.6006H156.008V96.1133C156.428 96.1133 156.76 96.167 157.004 96.2744C157.258 96.3818 157.448 96.5381 157.575 96.7432C157.702 96.9385 157.78 97.1777 157.81 97.4609C157.849 97.7344 157.868 98.0469 157.868 98.3984V107.114C157.868 107.368 157.858 107.637 157.839 107.92C157.819 108.193 157.751 108.447 157.634 108.682C157.517 108.906 157.331 109.097 157.077 109.253C156.833 109.399 156.477 109.473 156.008 109.473V110H167.126L167.99 106.265H167.463C167.209 106.929 166.936 107.456 166.643 107.847C166.35 108.237 166.027 108.54 165.676 108.755C165.334 108.96 164.958 109.097 164.548 109.165C164.138 109.224 163.688 109.253 163.2 109.253H161.999C161.599 109.253 161.286 109.224 161.062 109.165C160.847 109.106 160.686 109.014 160.578 108.887C160.48 108.75 160.422 108.579 160.402 108.374C160.393 108.159 160.388 107.905 160.388 107.612V102.793H163.068C163.625 102.793 164.064 102.847 164.387 102.954C164.709 103.062 164.948 103.218 165.104 103.423C165.271 103.618 165.373 103.857 165.412 104.141C165.451 104.414 165.476 104.727 165.485 105.078H166.027V99.7754H165.485C165.495 100.059 165.49 100.337 165.471 100.61C165.451 100.884 165.368 101.128 165.222 101.343C165.085 101.558 164.86 101.733 164.548 101.87C164.235 101.997 163.796 102.061 163.229 102.061H160.388V96.3477H163.449C163.781 96.3477 164.133 96.3623 164.504 96.3916C164.885 96.4209 165.236 96.5186 165.559 96.6846C165.891 96.8506 166.174 97.1143 166.408 97.4756C166.643 97.8271 166.784 98.335 166.833 98.999H167.36ZM45 88V98H55V103H45V113H40V103H30V98H40V88H45Z" fill="white"/>
</svg>
