<svg width="150" height="150" viewBox="0 0 150 150" fill="none" xmlns="http://www.w3.org/2000/svg">
<path fill-rule="evenodd" clip-rule="evenodd" d="M75 150C116.421 150 150 116.421 150 75C150 33.5786 116.421 0 75 0C33.5786 0 0 33.5786 0 75C0 116.421 33.5786 150 75 150ZM7.5 75C7.5 64.6447 15.8947 56.25 26.25 56.25H50.625C50.625 56.25 52.2 56.25 52.2 59.25V90.75C52.2 93.75 50.625 93.75 50.625 93.75H26.25C15.8947 93.75 7.5 85.3553 7.5 75ZM26.25 58.5C17.1373 58.5 9.75 65.8873 9.75 75C9.75 84.1127 17.1373 91.5 26.25 91.5H49.875V58.5L26.25 58.5ZM100.065 78.501H96.7031L98.3401 74.502L100.065 78.501ZM108.711 76.9299C108.843 76.9446 108.986 76.9556 109.14 76.9629C109.293 76.9629 109.458 76.9556 109.634 76.9409C109.81 76.9189 109.993 76.8823 110.183 76.8311C110.381 76.7798 110.586 76.7029 110.799 76.6003C111.018 76.4905 111.205 76.3586 111.359 76.2048C111.52 76.0437 111.652 75.8716 111.754 75.6885C111.857 75.498 111.934 75.304 111.985 75.1062C112.036 74.9011 112.062 74.707 112.062 74.5239C112.062 74.2017 112.007 73.9014 111.897 73.623C111.795 73.3447 111.645 73.1067 111.447 72.9089C111.249 72.7039 111.007 72.5464 110.722 72.4365C110.443 72.3193 110.132 72.2607 109.788 72.2607C109.583 72.2607 109.381 72.2754 109.184 72.3047C108.986 72.3267 108.828 72.345 108.711 72.3596V76.9299ZM123.75 93.75H55.875C55.875 93.75 54.3 93.75 54.3 90.75V59.25C54.3 56.25 55.875 56.25 55.875 56.25H123.75C134.105 56.25 142.5 64.6447 142.5 75C142.5 85.3553 134.105 93.75 123.75 93.75ZM78.1252 72.085V71.7004H74.0054V72.085C74.3569 72.085 74.6389 72.1252 74.8513 72.2058C75.0637 72.2864 75.2285 72.3999 75.3457 72.5464C75.4702 72.6855 75.5508 72.854 75.5874 73.0518C75.6313 73.2495 75.6533 73.4656 75.6533 73.7V78.3362C75.6533 78.5486 75.646 78.7573 75.6313 78.9624C75.624 79.1602 75.5984 79.3616 75.5544 79.5667C75.5178 79.7644 75.4592 79.9622 75.3787 80.1599C75.2981 80.3577 75.1919 80.5554 75.0601 80.7532C74.9062 80.9875 74.7122 81.1853 74.4778 81.3464C74.2507 81.5076 74.0054 81.6394 73.7417 81.7419C73.4854 81.8372 73.218 81.9104 72.9397 81.9617C72.6614 82.0056 72.3977 82.0276 72.1487 82.0276C71.658 82.0276 71.2441 81.9617 70.9072 81.8298C70.5776 81.6907 70.303 81.5186 70.0833 81.3135C69.8708 81.1011 69.7061 80.8704 69.5889 80.6213C69.4717 80.365 69.3838 80.116 69.3252 79.8743C69.2739 79.6326 69.2446 79.4128 69.2373 79.2151C69.23 79.01 69.2263 78.8599 69.2263 78.7646V74.0955C69.2263 73.7366 69.241 73.4326 69.2703 73.1836C69.2996 72.9272 69.3728 72.7185 69.49 72.5574C69.6072 72.3962 69.7793 72.2791 70.0063 72.2058C70.2407 72.1252 70.5557 72.085 70.9512 72.085V71.7004H65.6008V72.085C65.989 72.085 66.2966 72.1252 66.5237 72.2058C66.7581 72.2791 66.9338 72.3999 67.051 72.5684C67.1755 72.7295 67.2561 72.9382 67.2927 73.1946C67.3293 73.4436 67.3477 73.7439 67.3477 74.0955V78.7646C67.3477 80.105 67.7249 81.1157 68.4792 81.7969C69.241 82.4707 70.3909 82.8076 71.929 82.8076C72.2219 82.8076 72.5479 82.782 72.9067 82.7307C73.2729 82.6794 73.6392 82.5806 74.0054 82.4341C74.3716 82.2876 74.7231 82.0862 75.0601 81.8298C75.397 81.5662 75.6863 81.2256 75.928 80.8081C76.0964 80.5078 76.2136 80.1379 76.2795 79.6985C76.3455 79.2517 76.3784 78.8123 76.3784 78.3801V74.0955C76.3784 73.8025 76.3894 73.5352 76.4114 73.2935C76.4333 73.0444 76.4993 72.832 76.6091 72.6562C76.7263 72.4731 76.9021 72.334 77.1365 72.2388C77.3708 72.1362 77.7004 72.085 78.1252 72.085ZM92.0999 72.3267L91.7593 67.262H91.3748C91.2942 67.6135 91.1587 67.8882 90.9683 68.0859C90.8218 68.2251 90.6497 68.2947 90.4519 68.2947C90.3201 68.2947 90.1003 68.2141 89.7927 68.053C88.7454 67.5256 87.6833 67.262 86.6067 67.262C85.2224 67.262 83.9443 67.6062 82.7725 68.2947C81.6079 68.9758 80.6924 69.939 80.0259 71.1841C79.3594 72.4292 79.0261 73.7952 79.0261 75.282C79.0261 77.1277 79.5315 78.7317 80.5422 80.094C81.8972 81.925 83.8088 82.8406 86.2771 82.8406C87.6467 82.8406 88.8296 82.533 89.8257 81.9177C90.8218 81.3025 91.6934 80.332 92.4404 79.0063L92.0999 78.7866C91.2136 80.0171 90.4006 80.8411 89.6609 81.2585C88.9211 81.6687 88.0679 81.8738 87.1011 81.8738C85.9878 81.8738 84.9954 81.6101 84.1238 81.0828C83.2595 80.5554 82.6113 79.7974 82.1792 78.8086C81.7471 77.8198 81.531 76.6516 81.531 75.304C81.531 73.6707 81.7581 72.3047 82.2122 71.2061C82.6736 70.1074 83.3035 69.3091 84.1018 68.811C84.9001 68.3057 85.7937 68.053 86.7825 68.053C87.9617 68.053 88.9724 68.3862 89.8147 69.0527C90.657 69.7192 91.3052 70.8105 91.7593 72.3267H92.0999ZM93.3303 82.1045V82.5H96.7031V82.1045C96.6372 82.1045 96.5493 82.0935 96.4395 82.0715C96.3296 82.0422 96.2197 82.002 96.1099 81.9507C96 81.8921 95.9048 81.8152 95.8242 81.72C95.751 81.6174 95.7144 81.4929 95.7144 81.3464C95.7144 81.2292 95.729 81.1121 95.7583 80.9949C95.7876 80.8704 95.8352 80.7239 95.9011 80.5554L96.4834 79.1602H100.351L100.955 80.5554C101.057 80.7751 101.134 80.9619 101.186 81.1157C101.244 81.2695 101.273 81.4087 101.273 81.5332C101.273 81.665 101.233 81.7712 101.153 81.8518C101.072 81.925 100.977 81.98 100.867 82.0166C100.757 82.0532 100.644 82.0789 100.526 82.0935C100.409 82.1008 100.314 82.1045 100.241 82.1045V82.5H104.734V82.1045C104.566 82.1045 104.405 82.0972 104.251 82.0825C104.104 82.0605 103.958 82.0056 103.811 81.9177C103.672 81.8225 103.533 81.6833 103.394 81.5002C103.255 81.3098 103.112 81.0461 102.965 80.7092L98.9663 71.4148H98.7905L95.187 80.1709C94.9893 80.6396 94.8098 81.0022 94.6487 81.2585C94.4875 81.5149 94.3337 81.7053 94.1873 81.8298C94.0408 81.9543 93.8979 82.0312 93.7588 82.0605C93.6196 82.0825 93.4768 82.0972 93.3303 82.1045ZM109.601 77.4902L113.589 82.5H116.424V82.1045C116.211 82.0605 116.017 82.002 115.841 81.9287C115.666 81.8555 115.497 81.7639 115.336 81.6541C115.182 81.5442 115.028 81.4124 114.875 81.2585C114.721 81.0974 114.56 80.9143 114.391 80.7092L111.568 77.2266C111.67 77.1973 111.806 77.157 111.974 77.1057C112.15 77.0544 112.337 76.9849 112.534 76.897C112.732 76.8091 112.93 76.6992 113.128 76.5674C113.325 76.4355 113.505 76.2744 113.666 76.084C113.827 75.8936 113.955 75.6702 114.051 75.4138C114.153 75.1575 114.204 74.8608 114.204 74.5239C114.204 74.0918 114.105 73.7073 113.908 73.3704C113.717 73.0334 113.476 72.7588 113.183 72.5464C112.912 72.3486 112.626 72.1948 112.326 72.085C112.025 71.9678 111.725 71.8835 111.425 71.8323C111.132 71.7737 110.843 71.7371 110.557 71.7224C110.279 71.7078 110.022 71.7004 109.788 71.7004H105.086V72.085C105.467 72.085 105.771 72.1252 105.998 72.2058C106.232 72.2791 106.408 72.3962 106.525 72.5574C106.649 72.7185 106.73 72.9272 106.767 73.1836C106.803 73.4326 106.822 73.7292 106.822 74.0735V80.127C106.822 80.4785 106.8 80.7788 106.756 81.0278C106.719 81.2769 106.638 81.4819 106.514 81.6431C106.397 81.8042 106.221 81.9214 105.987 81.9946C105.76 82.0679 105.459 82.1045 105.086 82.1045V82.5H110.26V82.1045C110.121 82.1045 109.96 82.0972 109.777 82.0825C109.601 82.0605 109.433 81.9983 109.271 81.8958C109.118 81.7859 108.986 81.6174 108.876 81.3904C108.766 81.1633 108.711 80.8411 108.711 80.4236V77.4902C108.799 77.4976 108.876 77.5049 108.942 77.5122H109.337C109.411 77.5049 109.499 77.4976 109.601 77.4902ZM125.52 74.2493L125.41 71.7004H117.006V72.085C117.321 72.085 117.57 72.1252 117.753 72.2058C117.943 72.2864 118.086 72.4036 118.181 72.5574C118.277 72.7039 118.335 72.8833 118.357 73.0957C118.386 73.3008 118.401 73.5352 118.401 73.7988V80.3357C118.401 80.5261 118.394 80.7275 118.379 80.9399C118.365 81.145 118.313 81.3354 118.225 81.5112C118.137 81.6797 117.998 81.8225 117.808 81.9397C117.625 82.0496 117.357 82.1045 117.006 82.1045V82.5H125.344L125.993 79.6985H125.597C125.407 80.1965 125.202 80.592 124.982 80.885C124.762 81.178 124.521 81.405 124.257 81.5662C124 81.72 123.719 81.8225 123.411 81.8738C123.103 81.9177 122.766 81.9397 122.4 81.9397H121.499C121.199 81.9397 120.965 81.9177 120.796 81.8738C120.635 81.8298 120.514 81.7603 120.434 81.665C120.36 81.5625 120.316 81.4343 120.302 81.2805C120.294 81.1194 120.291 80.929 120.291 80.7092V77.0947H122.301C122.719 77.0947 123.048 77.135 123.29 77.2156C123.532 77.2961 123.711 77.4133 123.828 77.5671C123.953 77.7136 124.03 77.8931 124.059 78.1055C124.088 78.3105 124.107 78.5449 124.114 78.8086H124.521V74.8315H124.114C124.121 75.0439 124.118 75.2527 124.103 75.4578C124.088 75.6628 124.026 75.8459 123.916 76.0071C123.814 76.1682 123.645 76.3 123.411 76.4026C123.177 76.4978 122.847 76.5454 122.422 76.5454H120.291V72.2607H122.587C122.836 72.2607 123.1 72.2717 123.378 72.2937C123.664 72.3157 123.927 72.3889 124.169 72.5134C124.418 72.6379 124.63 72.8357 124.806 73.1067C124.982 73.3704 125.088 73.7512 125.125 74.2493H125.52ZM33.75 66V73.5H41.25V77.25H33.75V84.75H30V77.25H22.5V73.5H30V66H33.75Z" fill="#027C90"/>
</svg>
