<svg width="22" height="22" viewBox="0 0 22 22" fill="none" xmlns="http://www.w3.org/2000/svg">
<g clip-path="url(#clip0_889_1027)">
<path d="M15.3939 12.4665C15.5694 11.9975 15.6584 11.5006 15.6567 10.9998C15.6567 9.88799 15.215 8.82168 14.4288 8.03549C13.6426 7.2493 12.5763 6.80762 11.4644 6.80762C10.9699 6.80819 10.4794 6.89719 10.0161 7.07039L11 8.08484C11.1496 8.06091 11.3008 8.04865 11.4522 8.04817C12.2384 8.04653 12.9932 8.35601 13.552 8.90904C14.1108 9.46207 14.428 10.2137 14.4344 10.9998C14.4339 11.1513 14.4217 11.3025 14.3978 11.4521L15.3939 12.4665Z" fill="#027C90"/>
<path d="M20.955 10.7127C18.8955 6.90545 15.2838 4.60156 11.2872 4.60156C10.199 4.60412 9.11814 4.77945 8.08496 5.12101L9.06885 6.11101C9.79354 5.92372 10.5387 5.82724 11.2872 5.82378C14.7277 5.82378 17.8566 7.74267 19.7205 10.9755C19.0368 12.1748 18.1304 13.2326 17.05 14.0921L17.9177 14.9599C19.1681 13.9512 20.2066 12.705 20.9733 11.2932L21.1322 10.9999L20.955 10.7127Z" fill="#027C90"/>
<path d="M2.97626 3.53214L5.70181 6.25769C3.97904 7.36693 2.57103 8.90122 1.61348 10.7127L1.45459 10.9999L1.61348 11.2932C3.67292 15.1005 7.28459 17.4044 11.2813 17.4044C12.8412 17.404 14.3809 17.051 15.7851 16.3716L18.8407 19.4271L19.9101 18.5105L4.02126 2.62158L2.97626 3.53214ZM8.93459 9.49047L12.9985 13.5544C12.5393 13.8386 12.0107 13.9908 11.4707 13.9944C11.0783 13.9944 10.6898 13.9168 10.3275 13.7661C9.96526 13.6154 9.63636 13.3945 9.35976 13.1162C9.08317 12.8379 8.86433 12.5077 8.71585 12.1445C8.56737 11.7813 8.49217 11.3923 8.49459 10.9999C8.50148 10.4661 8.65358 9.94433 8.93459 9.49047ZM8.04848 8.60436C7.47674 9.41066 7.20877 10.3933 7.29199 11.3782C7.37522 12.3631 7.80428 13.2868 8.50321 13.9857C9.20214 14.6847 10.1258 15.1137 11.1108 15.197C12.0957 15.2802 13.0783 15.0122 13.8846 14.4405L14.8624 15.4182C13.7305 15.9021 12.5122 16.1516 11.2813 16.1516C7.8407 16.1516 4.71181 14.2327 2.84792 10.9999C3.74241 9.41605 5.03064 8.08993 6.58792 7.14992L8.04848 8.60436Z" fill="#027C90"/>
</g>
<defs>
<clipPath id="clip0_889_1027">
<rect width="22" height="22" fill="white"/>
</clipPath>
</defs>
</svg>
