<svg width="23" height="20" viewBox="0 0 23 20" fill="none" xmlns="http://www.w3.org/2000/svg">
<path d="M8.33414 3.56957e-07C6.93246 -0.000409898 5.55332 0.352819 4.32441 1.02699C3.0955 1.70115 2.05654 2.67447 1.30371 3.85683C0.550875 5.03918 0.108508 6.39236 0.0175591 7.7911C-0.07339 9.18983 0.190018 10.5889 0.783399 11.8588C0.503791 13.0162 0.251548 14.18 0.0268802 15.3492C-0.00730972 15.5256 0.00196995 15.7077 0.0539172 15.8797C0.105864 16.0517 0.198916 16.2084 0.32503 16.3364C0.451144 16.4644 0.606525 16.5597 0.777745 16.6142C0.948964 16.6686 1.13087 16.6806 1.30774 16.649C1.99983 16.5268 3.50509 16.249 4.90259 15.9269C6.0353 16.4377 7.26792 16.6886 8.51018 16.6614C9.75243 16.6342 10.9729 16.3294 12.0821 15.7695C13.1913 15.2096 14.1613 14.4086 14.9209 13.4253C15.6806 12.442 16.2107 11.3012 16.4724 10.0866C16.7341 8.87187 16.7208 7.61403 16.4335 6.40516C16.1462 5.19628 15.5921 4.06697 14.8118 3.09993C14.0316 2.13289 13.0449 1.35262 11.9241 0.816244C10.8033 0.27987 9.5767 0.000980695 8.33414 3.56957e-07V3.56957e-07ZM8.29193 17.7743C9.83113 19.2053 11.8558 19.9993 13.9575 19.9961C15.1404 19.9975 16.3099 19.7464 17.3879 19.2596C18.5466 19.5306 19.8163 19.8017 20.624 19.9705C20.8513 20.0183 21.0871 20.0079 21.3094 19.9404C21.5317 19.8729 21.7334 19.7504 21.8958 19.5843C22.0582 19.4182 22.1762 19.2138 22.2387 18.9901C22.3013 18.7664 22.3064 18.5304 22.2536 18.3042C22.0737 17.5232 21.7893 16.3101 21.5082 15.1904C22.002 14.1327 22.2681 12.9832 22.2893 11.8162C22.3106 10.6492 22.0865 9.49076 21.6315 8.41588C21.1766 7.34099 20.501 6.37363 19.6485 5.57644C18.7959 4.77925 17.7855 4.17 16.6825 3.78815C17.0767 4.50452 17.3755 5.26938 17.5712 6.06326C18.5079 6.66701 19.2781 7.49615 19.8112 8.47472C20.3444 9.45329 20.6234 10.55 20.6229 11.6644C20.6248 12.7261 20.3715 13.7727 19.8841 14.716L19.7397 14.9971L19.8175 15.3037C20.0707 16.2979 20.3362 17.4144 20.5306 18.2475C19.5132 18.0344 18.4985 17.8085 17.4868 17.5699L17.1935 17.501L16.9236 17.6354C16.0304 18.0798 15.0239 18.3297 13.9575 18.3297C12.8222 18.3319 11.7053 18.0427 10.7137 17.4899C9.92207 17.6888 9.10807 17.7844 8.29193 17.7743V17.7743Z" fill="white"/>
</svg>
