<svg width="21" height="26" viewBox="0 0 21 26" fill="none" xmlns="http://www.w3.org/2000/svg">
<mask id="path-1-outside-1_905_1271" maskUnits="userSpaceOnUse" x="0" y="0" width="21" height="26" fill="black">
<rect fill="white" width="21" height="26"/>
<path fill-rule="evenodd" clip-rule="evenodd" d="M9.34499 1.12032C7.03858 1.62113 5.42707 3.61265 5.42707 5.96195C5.42707 7.44727 5.85529 8.49506 6.89625 9.55649C9.34215 12.0508 13.6494 11.2254 15.0033 8.00302C15.8118 6.07876 15.409 3.95819 13.9603 2.51223C13.2187 1.77205 12.6065 1.4196 11.636 1.17429C10.7879 0.959912 10.1527 0.944935 9.34499 1.12032ZM12.1005 2.21401C13.1124 2.70285 13.8224 3.44392 14.3194 4.53008C14.4702 4.85966 14.5027 5.11339 14.5064 5.99235C14.5108 7.04315 14.5069 7.06415 14.1774 7.75426C13.7138 8.72521 12.9733 9.44589 12.0207 9.85338C11.3697 10.1318 11.2551 10.1526 10.3899 10.1483C9.59136 10.1444 9.37928 10.1105 8.89434 9.90921C6.91407 9.08714 5.84076 7.01621 6.36053 5.0206C6.62436 4.00774 7.36126 3.00072 8.23339 2.46136C8.97073 2.00539 9.54864 1.86519 10.5672 1.89532C11.4077 1.92014 11.556 1.95089 12.1005 2.21401ZM6.13605 11.0815C3.01334 12.2602 1.86825 13.2731 1.34475 15.3199C1.04902 16.4763 0.87904 19.7095 1.10228 19.9327C1.17876 20.0092 1.77581 20.039 3.22923 20.039H5.24982V20.404C5.24982 20.7097 5.30566 20.8247 5.59386 21.113C5.78732 21.3064 6.0243 21.457 6.13507 21.457C6.28777 21.457 6.31808 21.492 6.26943 21.6121C5.93293 22.4423 6.01269 22.7357 6.77927 23.4864C7.43889 24.1323 7.80251 24.2705 8.34807 24.0825L8.7116 23.9573L8.83036 24.2359C8.89567 24.3891 9.05705 24.6142 9.18901 24.736C9.40552 24.9359 9.5155 24.9606 10.3135 24.9883C11.1557 25.0174 11.2145 25.0074 11.5454 24.7781C11.7464 24.6387 11.9384 24.4111 12.0011 24.2378C12.1092 23.9388 12.1982 23.8699 12.2882 24.0156C12.3606 24.1326 12.8381 24.2065 13.1363 24.1469C13.4651 24.0811 14.4905 23.1563 14.6431 22.7881C14.7487 22.5332 14.7312 21.9344 14.6095 21.6343C14.5713 21.5401 14.6569 21.4589 14.9026 21.3559C15.3018 21.1887 15.563 20.7714 15.5463 20.3274L15.5355 20.039H17.611C19.3153 20.039 19.6992 20.0164 19.7574 19.9128C19.8522 19.7438 19.7392 16.6889 19.6112 15.9624C19.2386 13.8464 18.4094 12.7544 16.4163 11.7541C15.6396 11.3643 13.6311 10.645 13.3194 10.645C13.2226 10.645 12.8927 10.7827 12.5864 10.9509C11.1812 11.7224 9.59508 11.7215 8.20433 10.9486C7.90389 10.7816 7.56491 10.6492 7.45103 10.6543C7.33706 10.6593 6.74533 10.8516 6.13605 11.0815ZM7.97754 11.7857C8.80058 12.1988 9.38868 12.3289 10.4323 12.3289C11.2112 12.3289 11.4977 12.2888 12.0582 12.1016C12.4323 11.9767 12.8703 11.7972 13.0315 11.7028C13.3959 11.4895 13.4239 11.4899 14.1196 11.7164C16.9228 12.629 18.2604 13.7524 18.6736 15.5406C18.803 16.101 18.9863 18.018 18.9863 18.8112V19.2414H17.2582C15.5994 19.2414 15.5301 19.2344 15.5301 19.0673C15.5301 18.8293 15.0478 18.2982 14.7677 18.228C14.5931 18.1841 14.5548 18.1347 14.6058 18.0192C14.7109 17.7807 14.7568 17.2239 14.6926 16.9678C14.6216 16.6849 13.5471 15.6252 13.2575 15.5525C13.024 15.4939 12.4612 15.5452 12.2326 15.6459C12.117 15.6969 12.0677 15.6586 12.0238 15.484C11.9337 15.1252 11.4327 14.7427 10.9597 14.6718C10.3784 14.5847 9.50088 14.6922 9.23784 14.8828C9.11599 14.9711 8.94335 15.19 8.8542 15.3693C8.71772 15.6437 8.66614 15.6814 8.52771 15.6073C8.43723 15.5589 8.1578 15.5193 7.90664 15.5193C7.46752 15.5193 7.42781 15.5405 6.86984 16.0732C6.07189 16.8349 5.89207 17.3019 6.18249 17.8588C6.25613 18.0001 6.30576 18.1197 6.29273 18.1247C5.83464 18.2978 5.53528 18.5402 5.38276 18.8616L5.20551 19.2351L3.51016 19.2383L1.81481 19.2414L1.85354 18.2444C1.97335 15.1568 2.45227 13.9909 4.00911 12.9975C4.73404 12.535 6.94207 11.5852 7.40149 11.5383C7.43942 11.5345 7.69864 11.6458 7.97754 11.7857ZM11.1844 15.6907C11.2349 15.785 11.2762 16.116 11.2762 16.4263C11.2762 17.3489 11.5662 17.4417 12.2951 16.7523C12.8596 16.2185 12.9439 16.2247 13.5211 16.8417C13.9996 17.3533 13.9917 17.4665 13.44 18.008C12.7783 18.6573 12.9265 18.9756 13.8905 18.9756C14.2618 18.9756 14.5634 19.0192 14.6261 19.0819C14.757 19.2128 14.7678 20.2505 14.6407 20.488C14.5644 20.6306 14.4517 20.6594 13.9702 20.6594C12.9109 20.6594 12.7689 20.9776 13.4917 21.7315C13.7354 21.9856 13.9348 22.2297 13.9348 22.2738C13.9348 22.4202 13.0253 23.3181 12.877 23.3181C12.7967 23.3181 12.5582 23.142 12.3469 22.9267C11.923 22.4948 11.7641 22.4229 11.4723 22.5308C11.2938 22.5969 11.2762 22.6631 11.2762 23.2659C11.2762 24.0777 11.1548 24.2043 10.3766 24.2043C9.69957 24.2043 9.59233 24.0883 9.59233 23.3561C9.59233 22.9045 9.55556 22.7496 9.41509 22.6091C9.3176 22.5116 9.20106 22.4319 9.15604 22.4319C9.07026 22.4319 8.62785 22.7792 8.28125 23.1187C8.16932 23.2284 8.01113 23.3181 7.92968 23.3181C7.71601 23.3181 6.93365 22.5173 6.93365 22.2986C6.93365 22.1972 7.10975 21.9414 7.32501 21.7301C7.77699 21.2866 7.8509 21.0976 7.67215 20.8424C7.56376 20.6877 7.44988 20.6594 6.93498 20.6594C6.15049 20.6594 6.04743 20.5643 6.04743 19.8403C6.04743 19.0954 6.1684 18.976 6.92523 18.9742C7.57546 18.9727 7.6795 18.9321 7.76936 18.644C7.81926 18.4841 7.74393 18.3529 7.38253 17.9708C7.13562 17.7098 6.93365 17.4157 6.93365 17.3174C6.93365 17.1243 7.73631 16.3169 7.92827 16.3169C7.99216 16.3169 8.26237 16.5163 8.52886 16.76C9.0528 17.2392 9.18157 17.2816 9.43024 17.0564C9.55626 16.9424 9.59233 16.7789 9.59233 16.3209C9.59233 15.981 9.63727 15.6871 9.69868 15.6256C9.76187 15.5624 10.0663 15.5193 10.4489 15.5193C10.9947 15.5193 11.1066 15.5453 11.1844 15.6907ZM9.73041 17.6898C9.26124 17.857 8.97951 18.077 8.66445 18.5224C8.30057 19.0369 8.24199 19.8965 8.52913 20.5073C8.88929 21.2735 9.58773 21.7244 10.4093 21.7209C11.5747 21.7161 12.4666 20.8134 12.4652 19.6402C12.4635 18.224 11.0536 17.2185 9.73041 17.6898ZM11.108 18.6462C11.6959 19.0411 11.7866 19.9853 11.2849 20.4871C10.6209 21.1511 9.53234 20.8946 9.24068 20.0055C9.08834 19.5411 9.23288 19.0761 9.64081 18.7179C10.0429 18.365 10.6454 18.3355 11.108 18.6462Z"/>
</mask>
<path fill-rule="evenodd" clip-rule="evenodd" d="M9.34499 1.12032C7.03858 1.62113 5.42707 3.61265 5.42707 5.96195C5.42707 7.44727 5.85529 8.49506 6.89625 9.55649C9.34215 12.0508 13.6494 11.2254 15.0033 8.00302C15.8118 6.07876 15.409 3.95819 13.9603 2.51223C13.2187 1.77205 12.6065 1.4196 11.636 1.17429C10.7879 0.959912 10.1527 0.944935 9.34499 1.12032ZM12.1005 2.21401C13.1124 2.70285 13.8224 3.44392 14.3194 4.53008C14.4702 4.85966 14.5027 5.11339 14.5064 5.99235C14.5108 7.04315 14.5069 7.06415 14.1774 7.75426C13.7138 8.72521 12.9733 9.44589 12.0207 9.85338C11.3697 10.1318 11.2551 10.1526 10.3899 10.1483C9.59136 10.1444 9.37928 10.1105 8.89434 9.90921C6.91407 9.08714 5.84076 7.01621 6.36053 5.0206C6.62436 4.00774 7.36126 3.00072 8.23339 2.46136C8.97073 2.00539 9.54864 1.86519 10.5672 1.89532C11.4077 1.92014 11.556 1.95089 12.1005 2.21401ZM6.13605 11.0815C3.01334 12.2602 1.86825 13.2731 1.34475 15.3199C1.04902 16.4763 0.87904 19.7095 1.10228 19.9327C1.17876 20.0092 1.77581 20.039 3.22923 20.039H5.24982V20.404C5.24982 20.7097 5.30566 20.8247 5.59386 21.113C5.78732 21.3064 6.0243 21.457 6.13507 21.457C6.28777 21.457 6.31808 21.492 6.26943 21.6121C5.93293 22.4423 6.01269 22.7357 6.77927 23.4864C7.43889 24.1323 7.80251 24.2705 8.34807 24.0825L8.7116 23.9573L8.83036 24.2359C8.89567 24.3891 9.05705 24.6142 9.18901 24.736C9.40552 24.9359 9.5155 24.9606 10.3135 24.9883C11.1557 25.0174 11.2145 25.0074 11.5454 24.7781C11.7464 24.6387 11.9384 24.4111 12.0011 24.2378C12.1092 23.9388 12.1982 23.8699 12.2882 24.0156C12.3606 24.1326 12.8381 24.2065 13.1363 24.1469C13.4651 24.0811 14.4905 23.1563 14.6431 22.7881C14.7487 22.5332 14.7312 21.9344 14.6095 21.6343C14.5713 21.5401 14.6569 21.4589 14.9026 21.3559C15.3018 21.1887 15.563 20.7714 15.5463 20.3274L15.5355 20.039H17.611C19.3153 20.039 19.6992 20.0164 19.7574 19.9128C19.8522 19.7438 19.7392 16.6889 19.6112 15.9624C19.2386 13.8464 18.4094 12.7544 16.4163 11.7541C15.6396 11.3643 13.6311 10.645 13.3194 10.645C13.2226 10.645 12.8927 10.7827 12.5864 10.9509C11.1812 11.7224 9.59508 11.7215 8.20433 10.9486C7.90389 10.7816 7.56491 10.6492 7.45103 10.6543C7.33706 10.6593 6.74533 10.8516 6.13605 11.0815ZM7.97754 11.7857C8.80058 12.1988 9.38868 12.3289 10.4323 12.3289C11.2112 12.3289 11.4977 12.2888 12.0582 12.1016C12.4323 11.9767 12.8703 11.7972 13.0315 11.7028C13.3959 11.4895 13.4239 11.4899 14.1196 11.7164C16.9228 12.629 18.2604 13.7524 18.6736 15.5406C18.803 16.101 18.9863 18.018 18.9863 18.8112V19.2414H17.2582C15.5994 19.2414 15.5301 19.2344 15.5301 19.0673C15.5301 18.8293 15.0478 18.2982 14.7677 18.228C14.5931 18.1841 14.5548 18.1347 14.6058 18.0192C14.7109 17.7807 14.7568 17.2239 14.6926 16.9678C14.6216 16.6849 13.5471 15.6252 13.2575 15.5525C13.024 15.4939 12.4612 15.5452 12.2326 15.6459C12.117 15.6969 12.0677 15.6586 12.0238 15.484C11.9337 15.1252 11.4327 14.7427 10.9597 14.6718C10.3784 14.5847 9.50088 14.6922 9.23784 14.8828C9.11599 14.9711 8.94335 15.19 8.8542 15.3693C8.71772 15.6437 8.66614 15.6814 8.52771 15.6073C8.43723 15.5589 8.1578 15.5193 7.90664 15.5193C7.46752 15.5193 7.42781 15.5405 6.86984 16.0732C6.07189 16.8349 5.89207 17.3019 6.18249 17.8588C6.25613 18.0001 6.30576 18.1197 6.29273 18.1247C5.83464 18.2978 5.53528 18.5402 5.38276 18.8616L5.20551 19.2351L3.51016 19.2383L1.81481 19.2414L1.85354 18.2444C1.97335 15.1568 2.45227 13.9909 4.00911 12.9975C4.73404 12.535 6.94207 11.5852 7.40149 11.5383C7.43942 11.5345 7.69864 11.6458 7.97754 11.7857ZM11.1844 15.6907C11.2349 15.785 11.2762 16.116 11.2762 16.4263C11.2762 17.3489 11.5662 17.4417 12.2951 16.7523C12.8596 16.2185 12.9439 16.2247 13.5211 16.8417C13.9996 17.3533 13.9917 17.4665 13.44 18.008C12.7783 18.6573 12.9265 18.9756 13.8905 18.9756C14.2618 18.9756 14.5634 19.0192 14.6261 19.0819C14.757 19.2128 14.7678 20.2505 14.6407 20.488C14.5644 20.6306 14.4517 20.6594 13.9702 20.6594C12.9109 20.6594 12.7689 20.9776 13.4917 21.7315C13.7354 21.9856 13.9348 22.2297 13.9348 22.2738C13.9348 22.4202 13.0253 23.3181 12.877 23.3181C12.7967 23.3181 12.5582 23.142 12.3469 22.9267C11.923 22.4948 11.7641 22.4229 11.4723 22.5308C11.2938 22.5969 11.2762 22.6631 11.2762 23.2659C11.2762 24.0777 11.1548 24.2043 10.3766 24.2043C9.69957 24.2043 9.59233 24.0883 9.59233 23.3561C9.59233 22.9045 9.55556 22.7496 9.41509 22.6091C9.3176 22.5116 9.20106 22.4319 9.15604 22.4319C9.07026 22.4319 8.62785 22.7792 8.28125 23.1187C8.16932 23.2284 8.01113 23.3181 7.92968 23.3181C7.71601 23.3181 6.93365 22.5173 6.93365 22.2986C6.93365 22.1972 7.10975 21.9414 7.32501 21.7301C7.77699 21.2866 7.8509 21.0976 7.67215 20.8424C7.56376 20.6877 7.44988 20.6594 6.93498 20.6594C6.15049 20.6594 6.04743 20.5643 6.04743 19.8403C6.04743 19.0954 6.1684 18.976 6.92523 18.9742C7.57546 18.9727 7.6795 18.9321 7.76936 18.644C7.81926 18.4841 7.74393 18.3529 7.38253 17.9708C7.13562 17.7098 6.93365 17.4157 6.93365 17.3174C6.93365 17.1243 7.73631 16.3169 7.92827 16.3169C7.99216 16.3169 8.26237 16.5163 8.52886 16.76C9.0528 17.2392 9.18157 17.2816 9.43024 17.0564C9.55626 16.9424 9.59233 16.7789 9.59233 16.3209C9.59233 15.981 9.63727 15.6871 9.69868 15.6256C9.76187 15.5624 10.0663 15.5193 10.4489 15.5193C10.9947 15.5193 11.1066 15.5453 11.1844 15.6907ZM9.73041 17.6898C9.26124 17.857 8.97951 18.077 8.66445 18.5224C8.30057 19.0369 8.24199 19.8965 8.52913 20.5073C8.88929 21.2735 9.58773 21.7244 10.4093 21.7209C11.5747 21.7161 12.4666 20.8134 12.4652 19.6402C12.4635 18.224 11.0536 17.2185 9.73041 17.6898ZM11.108 18.6462C11.6959 19.0411 11.7866 19.9853 11.2849 20.4871C10.6209 21.1511 9.53234 20.8946 9.24068 20.0055C9.08834 19.5411 9.23288 19.0761 9.64081 18.7179C10.0429 18.365 10.6454 18.3355 11.108 18.6462Z" fill="white"/>
<path fill-rule="evenodd" clip-rule="evenodd" d="M9.34499 1.12032C7.03858 1.62113 5.42707 3.61265 5.42707 5.96195C5.42707 7.44727 5.85529 8.49506 6.89625 9.55649C9.34215 12.0508 13.6494 11.2254 15.0033 8.00302C15.8118 6.07876 15.409 3.95819 13.9603 2.51223C13.2187 1.77205 12.6065 1.4196 11.636 1.17429C10.7879 0.959912 10.1527 0.944935 9.34499 1.12032ZM12.1005 2.21401C13.1124 2.70285 13.8224 3.44392 14.3194 4.53008C14.4702 4.85966 14.5027 5.11339 14.5064 5.99235C14.5108 7.04315 14.5069 7.06415 14.1774 7.75426C13.7138 8.72521 12.9733 9.44589 12.0207 9.85338C11.3697 10.1318 11.2551 10.1526 10.3899 10.1483C9.59136 10.1444 9.37928 10.1105 8.89434 9.90921C6.91407 9.08714 5.84076 7.01621 6.36053 5.0206C6.62436 4.00774 7.36126 3.00072 8.23339 2.46136C8.97073 2.00539 9.54864 1.86519 10.5672 1.89532C11.4077 1.92014 11.556 1.95089 12.1005 2.21401ZM6.13605 11.0815C3.01334 12.2602 1.86825 13.2731 1.34475 15.3199C1.04902 16.4763 0.87904 19.7095 1.10228 19.9327C1.17876 20.0092 1.77581 20.039 3.22923 20.039H5.24982V20.404C5.24982 20.7097 5.30566 20.8247 5.59386 21.113C5.78732 21.3064 6.0243 21.457 6.13507 21.457C6.28777 21.457 6.31808 21.492 6.26943 21.6121C5.93293 22.4423 6.01269 22.7357 6.77927 23.4864C7.43889 24.1323 7.80251 24.2705 8.34807 24.0825L8.7116 23.9573L8.83036 24.2359C8.89567 24.3891 9.05705 24.6142 9.18901 24.736C9.40552 24.9359 9.5155 24.9606 10.3135 24.9883C11.1557 25.0174 11.2145 25.0074 11.5454 24.7781C11.7464 24.6387 11.9384 24.4111 12.0011 24.2378C12.1092 23.9388 12.1982 23.8699 12.2882 24.0156C12.3606 24.1326 12.8381 24.2065 13.1363 24.1469C13.4651 24.0811 14.4905 23.1563 14.6431 22.7881C14.7487 22.5332 14.7312 21.9344 14.6095 21.6343C14.5713 21.5401 14.6569 21.4589 14.9026 21.3559C15.3018 21.1887 15.563 20.7714 15.5463 20.3274L15.5355 20.039H17.611C19.3153 20.039 19.6992 20.0164 19.7574 19.9128C19.8522 19.7438 19.7392 16.6889 19.6112 15.9624C19.2386 13.8464 18.4094 12.7544 16.4163 11.7541C15.6396 11.3643 13.6311 10.645 13.3194 10.645C13.2226 10.645 12.8927 10.7827 12.5864 10.9509C11.1812 11.7224 9.59508 11.7215 8.20433 10.9486C7.90389 10.7816 7.56491 10.6492 7.45103 10.6543C7.33706 10.6593 6.74533 10.8516 6.13605 11.0815ZM7.97754 11.7857C8.80058 12.1988 9.38868 12.3289 10.4323 12.3289C11.2112 12.3289 11.4977 12.2888 12.0582 12.1016C12.4323 11.9767 12.8703 11.7972 13.0315 11.7028C13.3959 11.4895 13.4239 11.4899 14.1196 11.7164C16.9228 12.629 18.2604 13.7524 18.6736 15.5406C18.803 16.101 18.9863 18.018 18.9863 18.8112V19.2414H17.2582C15.5994 19.2414 15.5301 19.2344 15.5301 19.0673C15.5301 18.8293 15.0478 18.2982 14.7677 18.228C14.5931 18.1841 14.5548 18.1347 14.6058 18.0192C14.7109 17.7807 14.7568 17.2239 14.6926 16.9678C14.6216 16.6849 13.5471 15.6252 13.2575 15.5525C13.024 15.4939 12.4612 15.5452 12.2326 15.6459C12.117 15.6969 12.0677 15.6586 12.0238 15.484C11.9337 15.1252 11.4327 14.7427 10.9597 14.6718C10.3784 14.5847 9.50088 14.6922 9.23784 14.8828C9.11599 14.9711 8.94335 15.19 8.8542 15.3693C8.71772 15.6437 8.66614 15.6814 8.52771 15.6073C8.43723 15.5589 8.1578 15.5193 7.90664 15.5193C7.46752 15.5193 7.42781 15.5405 6.86984 16.0732C6.07189 16.8349 5.89207 17.3019 6.18249 17.8588C6.25613 18.0001 6.30576 18.1197 6.29273 18.1247C5.83464 18.2978 5.53528 18.5402 5.38276 18.8616L5.20551 19.2351L3.51016 19.2383L1.81481 19.2414L1.85354 18.2444C1.97335 15.1568 2.45227 13.9909 4.00911 12.9975C4.73404 12.535 6.94207 11.5852 7.40149 11.5383C7.43942 11.5345 7.69864 11.6458 7.97754 11.7857ZM11.1844 15.6907C11.2349 15.785 11.2762 16.116 11.2762 16.4263C11.2762 17.3489 11.5662 17.4417 12.2951 16.7523C12.8596 16.2185 12.9439 16.2247 13.5211 16.8417C13.9996 17.3533 13.9917 17.4665 13.44 18.008C12.7783 18.6573 12.9265 18.9756 13.8905 18.9756C14.2618 18.9756 14.5634 19.0192 14.6261 19.0819C14.757 19.2128 14.7678 20.2505 14.6407 20.488C14.5644 20.6306 14.4517 20.6594 13.9702 20.6594C12.9109 20.6594 12.7689 20.9776 13.4917 21.7315C13.7354 21.9856 13.9348 22.2297 13.9348 22.2738C13.9348 22.4202 13.0253 23.3181 12.877 23.3181C12.7967 23.3181 12.5582 23.142 12.3469 22.9267C11.923 22.4948 11.7641 22.4229 11.4723 22.5308C11.2938 22.5969 11.2762 22.6631 11.2762 23.2659C11.2762 24.0777 11.1548 24.2043 10.3766 24.2043C9.69957 24.2043 9.59233 24.0883 9.59233 23.3561C9.59233 22.9045 9.55556 22.7496 9.41509 22.6091C9.3176 22.5116 9.20106 22.4319 9.15604 22.4319C9.07026 22.4319 8.62785 22.7792 8.28125 23.1187C8.16932 23.2284 8.01113 23.3181 7.92968 23.3181C7.71601 23.3181 6.93365 22.5173 6.93365 22.2986C6.93365 22.1972 7.10975 21.9414 7.32501 21.7301C7.77699 21.2866 7.8509 21.0976 7.67215 20.8424C7.56376 20.6877 7.44988 20.6594 6.93498 20.6594C6.15049 20.6594 6.04743 20.5643 6.04743 19.8403C6.04743 19.0954 6.1684 18.976 6.92523 18.9742C7.57546 18.9727 7.6795 18.9321 7.76936 18.644C7.81926 18.4841 7.74393 18.3529 7.38253 17.9708C7.13562 17.7098 6.93365 17.4157 6.93365 17.3174C6.93365 17.1243 7.73631 16.3169 7.92827 16.3169C7.99216 16.3169 8.26237 16.5163 8.52886 16.76C9.0528 17.2392 9.18157 17.2816 9.43024 17.0564C9.55626 16.9424 9.59233 16.7789 9.59233 16.3209C9.59233 15.981 9.63727 15.6871 9.69868 15.6256C9.76187 15.5624 10.0663 15.5193 10.4489 15.5193C10.9947 15.5193 11.1066 15.5453 11.1844 15.6907ZM9.73041 17.6898C9.26124 17.857 8.97951 18.077 8.66445 18.5224C8.30057 19.0369 8.24199 19.8965 8.52913 20.5073C8.88929 21.2735 9.58773 21.7244 10.4093 21.7209C11.5747 21.7161 12.4666 20.8134 12.4652 19.6402C12.4635 18.224 11.0536 17.2185 9.73041 17.6898ZM11.108 18.6462C11.6959 19.0411 11.7866 19.9853 11.2849 20.4871C10.6209 21.1511 9.53234 20.8946 9.24068 20.0055C9.08834 19.5411 9.23288 19.0761 9.64081 18.7179C10.0429 18.365 10.6454 18.3355 11.108 18.6462Z" stroke="#027C90" mask="url(#path-1-outside-1_905_1271)"/>
</svg>
