<svg width="70" height="70" viewBox="0 0 70 70" fill="none" xmlns="http://www.w3.org/2000/svg">
<circle cx="35" cy="35" r="35" fill="#027C90" fill-opacity="0.1"/>
<path d="M43.75 23.75H26.25C25.2554 23.75 24.3016 24.1451 23.5983 24.8483C22.8951 25.5516 22.5 26.5054 22.5 27.5V46.25C22.5004 46.4715 22.5596 46.6889 22.6716 46.88C22.7836 47.0711 22.9444 47.229 23.1375 47.3375C23.3243 47.4434 23.5353 47.4993 23.75 47.5C23.9744 47.4999 24.1946 47.4395 24.3875 47.325L30 43.925C30.2075 43.8015 30.4462 43.7407 30.6875 43.75H43.75C44.7446 43.75 45.6984 43.3549 46.4017 42.6517C47.1049 41.9484 47.5 40.9946 47.5 40V27.5C47.5 26.5054 47.1049 25.5516 46.4017 24.8483C45.6984 24.1451 44.7446 23.75 43.75 23.75ZM30 35C29.7528 35 29.5111 34.9267 29.3055 34.7893C29.1 34.652 28.9398 34.4568 28.8452 34.2284C28.7505 33.9999 28.7258 33.7486 28.774 33.5061C28.8222 33.2637 28.9413 33.0409 29.1161 32.8661C29.2909 32.6913 29.5137 32.5722 29.7561 32.524C29.9986 32.4758 30.2499 32.5005 30.4784 32.5951C30.7068 32.6898 30.902 32.85 31.0393 33.0555C31.1767 33.2611 31.25 33.5028 31.25 33.75C31.25 34.0815 31.1183 34.3995 30.8839 34.6339C30.6495 34.8683 30.3315 35 30 35ZM35 35C34.7528 35 34.5111 34.9267 34.3055 34.7893C34.1 34.652 33.9398 34.4568 33.8451 34.2284C33.7505 33.9999 33.7258 33.7486 33.774 33.5061C33.8222 33.2637 33.9413 33.0409 34.1161 32.8661C34.2909 32.6913 34.5137 32.5722 34.7561 32.524C34.9986 32.4758 35.2499 32.5005 35.4784 32.5951C35.7068 32.6898 35.902 32.85 36.0393 33.0555C36.1767 33.2611 36.25 33.5028 36.25 33.75C36.25 34.0815 36.1183 34.3995 35.8839 34.6339C35.6495 34.8683 35.3315 35 35 35ZM40 35C39.7528 35 39.5111 34.9267 39.3055 34.7893C39.1 34.652 38.9398 34.4568 38.8451 34.2284C38.7505 33.9999 38.7258 33.7486 38.774 33.5061C38.8223 33.2637 38.9413 33.0409 39.1161 32.8661C39.2909 32.6913 39.5137 32.5722 39.7561 32.524C39.9986 32.4758 40.2499 32.5005 40.4784 32.5951C40.7068 32.6898 40.902 32.85 41.0393 33.0555C41.1767 33.2611 41.25 33.5028 41.25 33.75C41.25 34.0815 41.1183 34.3995 40.8839 34.6339C40.6495 34.8683 40.3315 35 40 35Z" fill="#027C90"/>
</svg>
