<svg width="21" height="21" viewBox="0 0 21 21" fill="none" xmlns="http://www.w3.org/2000/svg">
<path d="M10.5 0C8.4233 0 6.39323 0.615814 4.66652 1.76957C2.9398 2.92332 1.59399 4.5632 0.79927 6.48182C0.00454947 8.40045 -0.203386 10.5116 0.201759 12.5484C0.606904 14.5852 1.60693 16.4562 3.07538 17.9246C4.54383 19.3931 6.41476 20.3931 8.45156 20.7982C10.4884 21.2034 12.5996 20.9955 14.5182 20.2007C16.4368 19.406 18.0767 18.0602 19.2304 16.3335C20.3842 14.6068 21 12.5767 21 10.5C21 7.71523 19.8938 5.04451 17.9246 3.07538C15.9555 1.10625 13.2848 0 10.5 0ZM10.5 19.5C8.71997 19.5 6.97992 18.9722 5.49987 17.9832C4.01983 16.9943 2.86628 15.5887 2.18509 13.9442C1.5039 12.2996 1.32567 10.49 1.67294 8.74419C2.0202 6.99836 2.87737 5.39471 4.13604 4.13604C5.39472 2.87737 6.99836 2.0202 8.74419 1.67293C10.49 1.32567 12.2996 1.5039 13.9442 2.18508C15.5887 2.86627 16.9943 4.01983 17.9832 5.49987C18.9722 6.97991 19.5 8.71997 19.5 10.5C19.5 12.8869 18.5518 15.1761 16.864 16.864C15.1761 18.5518 12.887 19.5 10.5 19.5Z" fill="black" fill-opacity="0.71"/>
<path d="M9.75 4.5H11.25V12.75H9.75V4.5Z" fill="black" fill-opacity="0.71"/>
<path d="M10.5 15C10.2775 15 10.06 15.066 9.87498 15.1896C9.68998 15.3132 9.54578 15.4889 9.46064 15.6945C9.37549 15.9 9.35321 16.1262 9.39662 16.3445C9.44003 16.5627 9.54717 16.7632 9.70451 16.9205C9.86184 17.0778 10.0623 17.185 10.2805 17.2284C10.4988 17.2718 10.725 17.2495 10.9305 17.1644C11.1361 17.0792 11.3118 16.935 11.4354 16.75C11.559 16.565 11.625 16.3475 11.625 16.125C11.625 15.8266 11.5065 15.5405 11.2955 15.3295C11.0845 15.1185 10.7984 15 10.5 15Z" fill="black" fill-opacity="0.71"/>
</svg>
